<svg xmlns="http://www.w3.org/2000/svg" xmlns:xlink="http://www.w3.org/1999/xlink" width="47.427" height="47.427" viewBox="0 0 47.427 47.427">
  <defs>
    <clipPath id="clip-path">
      <rect id="Retângulo_22051" data-name="Retângulo 22051" width="47.427" height="47.427" rx="8.469" transform="translate(0 0)" fill="none"/>
    </clipPath>
    <radialGradient id="radial-gradient" cx="-0.014" cy="0.5" r="1.308" gradientUnits="objectBoundingBox">
      <stop offset="0" stop-color="#f5ec53"/>
      <stop offset="0.241" stop-color="#e48244"/>
      <stop offset="0.399" stop-color="#d05567"/>
      <stop offset="0.489" stop-color="#c84278"/>
      <stop offset="1" stop-color="#192cfa"/>
    </radialGradient>
    <clipPath id="clip-path-2">
      <rect id="Retângulo_22052" data-name="Retângulo 22052" width="47.427" height="47.427" transform="translate(0 0)" fill="none"/>
    </clipPath>
  </defs>
  <g id="Grupo_8607" data-name="Grupo 8607" transform="translate(0 0)">
    <g id="Grupo_8599" data-name="Grupo 8599">
      <g id="Grupo_8598" data-name="Grupo 8598" clip-path="url(#clip-path)">
        <rect id="Retângulo_22050" data-name="Retângulo 22050" width="67.059" height="67.059" transform="translate(-23.695 22.784) rotate(-43.877)" fill="url(#radial-gradient)"/>
      </g>
    </g>
    <g id="Grupo_8601" data-name="Grupo 8601">
      <g id="Grupo_8600" data-name="Grupo 8600" clip-path="url(#clip-path-2)">
        <path id="Caminho_20032" data-name="Caminho 20032" d="M23.713,13.054c3.472,0,3.883.013,5.254.076a7.147,7.147,0,0,1,2.414.448,4.3,4.3,0,0,1,2.468,2.467,7.2,7.2,0,0,1,.448,2.414c.062,1.371.076,1.783.076,5.254s-.014,3.883-.076,5.254a7.206,7.206,0,0,1-.448,2.415,4.3,4.3,0,0,1-2.468,2.467,7.2,7.2,0,0,1-2.414.448c-1.371.062-1.782.076-5.254.076s-3.883-.014-5.254-.076a7.2,7.2,0,0,1-2.414-.448,4.3,4.3,0,0,1-2.468-2.467,7.206,7.206,0,0,1-.448-2.415c-.062-1.371-.075-1.782-.075-5.254s.013-3.883.075-5.254a7.2,7.2,0,0,1,.448-2.414,4.3,4.3,0,0,1,2.468-2.467,7.147,7.147,0,0,1,2.414-.448c1.371-.063,1.782-.076,5.254-.076m0-2.343c-3.531,0-3.974.015-5.361.078a9.521,9.521,0,0,0-3.156.605,6.641,6.641,0,0,0-3.8,3.8,9.532,9.532,0,0,0-.605,3.156c-.063,1.387-.078,1.83-.078,5.361s.015,3.974.078,5.361a9.521,9.521,0,0,0,.605,3.156,6.646,6.646,0,0,0,3.8,3.8,9.55,9.55,0,0,0,3.156.6c1.387.064,1.83.078,5.361.078s3.974-.014,5.361-.078a9.55,9.55,0,0,0,3.156-.6,6.652,6.652,0,0,0,3.8-3.8,9.55,9.55,0,0,0,.6-3.156c.063-1.387.078-1.829.078-5.361s-.015-3.974-.078-5.361a9.561,9.561,0,0,0-.6-3.156,6.646,6.646,0,0,0-3.8-3.8,9.521,9.521,0,0,0-3.156-.605c-1.387-.063-1.83-.078-5.361-.078" fill="#fff"/>
        <path id="Caminho_20033" data-name="Caminho 20033" d="M23.713,17.037a6.677,6.677,0,1,0,6.677,6.677,6.677,6.677,0,0,0-6.677-6.677m0,11.011a4.334,4.334,0,1,1,4.334-4.334,4.334,4.334,0,0,1-4.334,4.334" fill="#fff"/>
        <path id="Caminho_20034" data-name="Caminho 20034" d="M32.214,16.773a1.561,1.561,0,1,1-1.56-1.56,1.561,1.561,0,0,1,1.56,1.56" fill="#fff"/>
      </g>
    </g>
  </g>
</svg>
